??.ufo
<glyph name="dollar" format="2">
  <advance width="896"/>
  <unicode hex="0024"/>
  <outline>
    <contour>
      <point x="26.0" y="417.0" type="qcurve" smooth="yes"/>
      <point x="27.0" y="429.0" type="line"/>
      <point x="129.0" y="429.0" type="line"/>
      <point x="127.0" y="417.0" type="line" smooth="yes"/>
      <point x="106.0" y="253.11627906976744"/>
      <point x="242.0" y="93.0"/>
      <point x="382.0" y="93.0" type="qcurve" smooth="yes"/>
      <point x="521.0" y="93.0"/>
      <point x="692.0" y="245.06040268456377"/>
      <point x="710.0" y="371.0" type="qcurve" smooth="yes"/>
      <point x="726.0" y="483.4848484848485"/>
      <point x="653.4934718532131" y="630.1537224724079"/>
      <point x="471.0" y="691.0" type="qcurve" smooth="yes"/>
      <point x="283.571208002329" y="752.1282172149898"/>
      <point x="150.0" y="940.1518987341772"/>
      <point x="177.0" y="1096.0" type="qcurve" smooth="yes"/>
      <point x="205.0" y="1261.0"/>
      <point x="435.0" y="1456.0"/>
      <point x="604.0" y="1456.0" type="qcurve" smooth="yes"/>
      <point x="777.0" y="1456.0"/>
      <point x="939.0" y="1228.0"/>
      <point x="911.0" y="1045.0" type="qcurve" smooth="yes"/>
      <point x="909.0" y="1033.0" type="line"/>
      <point x="806.0" y="1033.0" type="line"/>
      <point x="808.0" y="1045.0" type="line" smooth="yes"/>
      <point x="827.0" y="1189.887573964497"/>
      <point x="711.0" y="1363.0"/>
      <point x="578.0" y="1363.0" type="qcurve" smooth="yes"/>
      <point x="444.0" y="1363.0"/>
      <point x="299.0" y="1226.3521126760563"/>
      <point x="281.0" y="1099.0" type="qcurve" smooth="yes"/>
      <point x="267.0" y="989.0"/>
      <point x="358.0" y="851.0"/>
      <point x="542.0" y="790.0" type="qcurve" smooth="yes"/>
      <point x="728.0" y="728.0"/>
      <point x="841.0" y="531.0"/>
      <point x="813.0" y="374.0" type="qcurve" smooth="yes"/>
      <point x="784.0" y="199.0"/>
      <point x="535.0" y="0.0"/>
      <point x="356.0" y="0.0" type="qcurve" smooth="yes"/>
      <point x="174.0" y="0.0"/>
      <point x="-6.0" y="212.0"/>
    </contour>
    <contour>
      <point x="280.0" y="-150.0" type="line"/>
      <point x="444.0" y="728.0" type="line"/>
      <point x="528.0" y="728.0" type="line"/>
      <point x="409.0" y="50.0" type="line"/>
      <point x="411.0" y="40.0" type="line"/>
      <point x="368.0" y="-150.0" type="line"/>
    </contour>
    <contour>
      <point x="444.0" y="728.0" type="line"/>
      <point x="555.0" y="1396.0" type="line"/>
      <point x="552.0" y="1406.0" type="line"/>
      <point x="586.0" y="1606.0" type="line"/>
      <point x="674.0" y="1606.0" type="line"/>
      <point x="528.0" y="728.0" type="line"/>
    </contour>
  </outline>
</glyph>
<glyph name="parenleft" format="2">
  <advance width="592"/>
  <unicode hex="0028"/>
  <outline>
    <contour>
      <point x="359.0" y="-436.0" type="line"/>
      <point x="192.0" y="-357.0"/>
      <point x="45.0" y="122.0"/>
      <point x="111.0" y="515.0" type="qcurve" smooth="yes"/>
      <point x="113.0" y="525.0" type="line" smooth="yes"/>
      <point x="182.0" y="918.0"/>
      <point x="496.0" y="1397.0"/>
      <point x="696.0" y="1476.0" type="qcurve"/>
      <point x="665.0" y="1386.0" type="line"/>
      <point x="518.0" y="1314.0"/>
      <point x="274.0" y="901.6962025316457"/>
      <point x="216.0" y="532.0" type="qcurve" smooth="yes"/>
      <point x="212.0" y="508.0" type="line" smooth="yes"/>
      <point x="156.0" y="138.3037974683544"/>
      <point x="271.0" y="-274.0"/>
      <point x="391.0" y="-346.0" type="qcurve"/>
    </contour>
  </outline>
</glyph>
<glyph name="one" format="2">
  <advance width="865"/>
  <unicode hex="0031"/>
  <outline>
    <contour>
      <point x="305.0" y="0.0" type="line"/>
      <point x="524.0" y="1353.0" type="line"/>
      <point x="162.0" y="1228.0" type="line"/>
      <point x="195.0" y="1332.0" type="line"/>
      <point x="613.0" y="1476.0" type="line"/>
      <point x="671.0" y="1476.0" type="line"/>
      <point x="411.0" y="0.0" type="line"/>
    </contour>
  </outline>
</glyph>
<glyph name="two" format="2">
  <advance width="865"/>
  <unicode hex="0032"/>
  <outline>
    <contour>
      <point x="-44.0" y="0.0" type="line"/>
      <point x="-20.0" y="84.0" type="line"/>
      <point x="518.0" y="689.0" type="line" smooth="yes"/>
      <point x="615.0" y="797.0"/>
      <point x="765.0" y="1012.0"/>
      <point x="782.0" y="1113.0" type="qcurve" smooth="yes"/>
      <point x="800.0" y="1250.0"/>
      <point x="676.0" y="1378.0"/>
      <point x="568.0" y="1378.0" type="qcurve" smooth="yes"/>
      <point x="455.0" y="1378.0"/>
      <point x="268.0" y="1245.0"/>
      <point x="244.0" y="1075.0" type="qcurve" smooth="yes"/>
      <point x="242.0" y="1055.0" type="line"/>
      <point x="138.0" y="1055.0" type="line"/>
      <point x="139.0" y="1075.0" type="line" smooth="yes"/>
      <point x="175.0" y="1273.0"/>
      <point x="437.0" y="1476.0"/>
      <point x="598.0" y="1476.0" type="qcurve" smooth="yes"/>
      <point x="754.0" y="1476.0"/>
      <point x="917.0" y="1285.0"/>
      <point x="888.0" y="1123.0" type="qcurve" smooth="yes"/>
      <point x="863.0" y="1002.0"/>
      <point x="713.0" y="793.0"/>
      <point x="582.0" y="643.0" type="qcurve" smooth="yes"/>
      <point x="110.0" y="98.0" type="line"/>
      <point x="758.0" y="98.0" type="line"/>
      <point x="729.0" y="0.0" type="line"/>
    </contour>
  </outline>
</glyph>
<glyph name="five" format="2">
  <advance width="865"/>
  <unicode hex="0035"/>
  <outline>
    <contour>
      <point x="-6.0" y="370.0" type="qcurve" smooth="yes"/>
      <point x="-4.0" y="390.0" type="line"/>
      <point x="101.0" y="390.0" type="line"/>
      <point x="99.0" y="370.0" type="line" smooth="yes"/>
      <point x="79.0" y="224.0"/>
      <point x="208.0" y="78.0"/>
      <point x="342.0" y="78.0" type="qcurve" smooth="yes"/>
      <point x="477.0" y="78.0"/>
      <point x="667.0" y="265.0"/>
      <point x="695.0" y="465.0" type="qcurve" smooth="yes"/>
      <point x="723.0" y="665.0"/>
      <point x="600.0" y="820.0"/>
      <point x="483.0" y="820.0" type="qcurve" smooth="yes"/>
      <point x="390.0" y="820.0"/>
      <point x="229.0" y="742.0"/>
      <point x="184.0" y="690.0" type="qcurve"/>
      <point x="108.0" y="717.0" type="line"/>
      <point x="306.0" y="1456.0" type="line"/>
      <point x="911.0" y="1456.0" type="line"/>
      <point x="881.0" y="1360.0" type="line"/>
      <point x="365.0" y="1360.0" type="line"/>
      <point x="240.0" y="814.0" type="line"/>
      <point x="284.9111477445392" y="858.8074475297334"/>
      <point x="444.0" y="920.0"/>
      <point x="532.0" y="920.0" type="qcurve" smooth="yes"/>
      <point x="673.0" y="920.0"/>
      <point x="842.0" y="707.0"/>
      <point x="801.0" y="465.0" type="qcurve" smooth="yes"/>
      <point x="761.0" y="223.0"/>
      <point x="491.0" y="-20.0"/>
      <point x="315.0" y="-20.0" type="qcurve" smooth="yes"/>
      <point x="138.0" y="-20.0"/>
      <point x="-36.0" y="181.0"/>
    </contour>
  </outline>
</glyph>
<glyph name="six" format="2">
  <advance width="865"/>
  <unicode hex="0036"/>
  <outline>
    <contour>
      <point x="62.0" y="614.0" type="qcurve" smooth="yes"/>
      <point x="67.0" y="644.0" type="line" smooth="yes"/>
      <point x="134.0" y="1038.0"/>
      <point x="542.0" y="1476.0"/>
      <point x="817.0" y="1476.0" type="qcurve" smooth="yes"/>
      <point x="835.0" y="1476.0" type="line"/>
      <point x="807.0" y="1380.0" type="line"/>
      <point x="789.0" y="1380.0" type="line" smooth="yes"/>
      <point x="559.0" y="1380.0"/>
      <point x="234.0" y="1006.0"/>
      <point x="172.0" y="634.0" type="qcurve" smooth="yes"/>
      <point x="163.0" y="614.0" type="line" smooth="yes"/>
      <point x="117.0" y="322.0"/>
      <point x="238.0" y="78.0"/>
      <point x="370.0" y="78.0" type="qcurve" smooth="yes"/>
      <point x="488.0" y="78.0"/>
      <point x="669.0" y="261.0"/>
      <point x="697.0" y="455.0" type="qcurve" smooth="yes"/>
      <point x="725.0" y="634.0"/>
      <point x="615.0" y="809.0"/>
      <point x="487.0" y="809.0" type="qcurve" smooth="yes"/>
      <point x="369.0" y="809.0"/>
      <point x="168.0" y="620.0"/>
      <point x="140.0" y="465.0" type="qcurve"/>
      <point x="76.0" y="465.0" type="line"/>
      <point x="115.0" y="665.0"/>
      <point x="379.0" y="908.0"/>
      <point x="533.0" y="908.0" type="qcurve" smooth="yes"/>
      <point x="703.0" y="908.0"/>
      <point x="842.0" y="667.0"/>
      <point x="803.0" y="455.0" type="qcurve" smooth="yes"/>
      <point x="765.0" y="235.0"/>
      <point x="507.0" y="-20.0"/>
      <point x="338.0" y="-20.0" type="qcurve" smooth="yes"/>
      <point x="154.0" y="-20.0"/>
      <point x="2.0" y="277.0"/>
    </contour>
  </outline>
</glyph>
<glyph name="nine" format="2">
  <advance width="865"/>
  <unicode hex="0039"/>
  <outline>
    <contour>
      <point x="131.0" y="1001.0" type="qcurve" smooth="yes"/>
      <point x="169.0" y="1221.0"/>
      <point x="425.0" y="1476.0"/>
      <point x="594.0" y="1476.0" type="qcurve" smooth="yes"/>
      <point x="778.0" y="1476.0"/>
      <point x="930.0" y="1179.0"/>
      <point x="870.0" y="842.0" type="qcurve" smooth="yes"/>
      <point x="865.0" y="812.0" type="line" smooth="yes"/>
      <point x="798.0" y="418.0"/>
      <point x="390.0" y="-20.0"/>
      <point x="115.0" y="-20.0" type="qcurve" smooth="yes"/>
      <point x="97.0" y="-20.0" type="line"/>
      <point x="125.0" y="78.0" type="line"/>
      <point x="143.0" y="78.0" type="line" smooth="yes"/>
      <point x="373.0" y="78.0"/>
      <point x="698.0" y="450.0"/>
      <point x="760.0" y="822.0" type="qcurve" smooth="yes"/>
      <point x="769.0" y="842.0" type="line" smooth="yes"/>
      <point x="815.0" y="1134.0"/>
      <point x="694.0" y="1377.0"/>
      <point x="562.0" y="1377.0" type="qcurve" smooth="yes"/>
      <point x="444.0" y="1377.0"/>
      <point x="264.0" y="1195.0"/>
      <point x="237.0" y="1001.0" type="qcurve" smooth="yes"/>
      <point x="209.0" y="822.0"/>
      <point x="321.0" y="652.0"/>
      <point x="449.0" y="652.0" type="qcurve" smooth="yes"/>
      <point x="567.0" y="652.0"/>
      <point x="767.0" y="836.0"/>
      <point x="794.0" y="991.0" type="qcurve"/>
      <point x="858.0" y="991.0" type="line"/>
      <point x="820.0" y="791.0"/>
      <point x="556.0" y="554.0"/>
      <point x="402.0" y="554.0" type="qcurve" smooth="yes"/>
      <point x="232.0" y="554.0"/>
      <point x="92.0" y="789.0"/>
    </contour>
  </outline>
</glyph>
<glyph name="Q" format="2">
  <advance width="1136"/>
  <unicode hex="0051"/>
  <outline>
    <contour>
      <point x="108" y="716" type="qcurve" smooth="yes"/>
      <point x="123" y="794" type="line" smooth="yes"/>
      <point x="188" y="1134"/>
      <point x="482.0" y="1476.0"/>
      <point x="729.0" y="1476.0" type="qcurve" smooth="yes"/>
      <point x="947" y="1476"/>
      <point x="1159" y="1134"/>
      <point x="1088.0" y="767.0" type="qcurve" smooth="yes"/>
      <point x="1073.0" y="689.0" type="line" smooth="yes"/>
      <point x="1004" y="332"/>
      <point x="720.0" y="-20.0"/>
      <point x="462.0" y="-20.0" type="qcurve" smooth="yes"/>
      <point x="245" y="-20"/>
      <point x="34" y="332"/>
    </contour>
    <contour>
      <point x="214" y="716" type="line" smooth="yes"/>
      <point x="147" y="369"/>
      <point x="317.0" y="78.0"/>
      <point x="491.0" y="78.0" type="qcurve" smooth="yes"/>
      <point x="664.0" y="78.0"/>
      <point x="905" y="369"/>
      <point x="966.0" y="689.0" type="qcurve" smooth="yes"/>
      <point x="981.0" y="767.0" type="line" smooth="yes"/>
      <point x="1044" y="1097"/>
      <point x="874.0" y="1377.0"/>
      <point x="700.0" y="1377.0" type="qcurve" smooth="yes"/>
      <point x="527.0" y="1377.0"/>
      <point x="287" y="1097"/>
      <point x="229" y="794" type="qcurve" smooth="yes"/>
    </contour>
    <contour>
      <point x="886.0" y="-224.0" type="line"/>
      <point x="520.0" y="201.0" type="line"/>
      <point x="604.0" y="267.0" type="line"/>
      <point x="973.0" y="-156.0" type="line"/>
    </contour>
  </outline>
</glyph>
<glyph name="R" format="2">
  <advance width="916"/>
  <unicode hex="0052"/>
  <outline>
    <contour>
      <point x="25.0" y="0.0" type="line"/>
      <point x="282.0" y="1456.0" type="line"/>
      <point x="633.0" y="1456.0" type="line" smooth="yes"/>
      <point x="824.0" y="1456.0"/>
      <point x="974.0" y="1228.0"/>
      <point x="939.0" y="1044.0" type="qcurve" smooth="yes"/>
      <point x="905.0" y="859.0"/>
      <point x="672.0" y="627.0"/>
      <point x="481.0" y="627.0" type="qcurve" smooth="yes"/>
      <point x="234.0" y="627.0" type="line"/>
      <point x="129.0" y="0.0" type="line"/>
    </contour>
    <contour>
      <point x="261.0" y="724.0" type="line"/>
      <point x="509.0" y="724.0" type="line" smooth="yes"/>
      <point x="663.0" y="724.0"/>
      <point x="815.0" y="903.3373493975904"/>
      <point x="835.0" y="1043.0" type="qcurve" smooth="yes"/>
      <point x="856.0" y="1183.565749235474"/>
      <point x="760.0" y="1356.0"/>
      <point x="606.0" y="1357.0" type="qcurve" smooth="yes"/>
      <point x="358.0" y="1357.0" type="line"/>
    </contour>
    <contour>
      <point x="731.0" y="0.0" type="line"/>
      <point x="515.0" y="667.0" type="line"/>
      <point x="616.0" y="667.0" type="line"/>
      <point x="835.0" y="0.0" type="line"/>
    </contour>
  </outline>
</glyph>
<glyph name="V" format="2">
  <advance width="962"/>
  <unicode hex="0056"/>
  <outline>
    <contour>
      <point x="147.0" y="1456.0" type="line"/>
      <point x="249.0" y="1456.0" type="line"/>
      <point x="392.0" y="202.0" type="line" smooth="yes"/>
      <point x="395" y="174"/>
      <point x="402.0" y="112.0"/>
      <point x="401.0" y="94.0" type="qcurve"/>
      <point x="405.0" y="94.0" type="line"/>
      <point x="413.0" y="112.0"/>
      <point x="442" y="180"/>
      <point x="452.0" y="202.0" type="qcurve" smooth="yes"/>
      <point x="1020.0" y="1456.0" type="line"/>
      <point x="1129.0" y="1456.0" type="line"/>
      <point x="447.0" y="-7.0" type="line"/>
      <point x="312.0" y="-7.0" type="line"/>
    </contour>
  </outline>
</glyph>
<glyph name="backslash" format="2">
  <advance width="458"/>
  <unicode hex="005C"/>
  <outline>
    <contour>
      <point x="54.0" y="1456.0" type="line"/>
      <point x="157.0" y="1456.0" type="line"/>
      <point x="439.0" y="-125.0" type="line"/>
      <point x="336.0" y="-125.0" type="line"/>
    </contour>
  </outline>
</glyph>
<glyph name="underscore" format="2">
  <advance width="857"/>
  <unicode hex="005F"/>
  <outline>
    <contour>
      <point x="-173.0" y="-317.0" type="line"/>
      <point x="-143.0" y="-219.0" type="line"/>
      <point x="714.0" y="-219.0" type="line"/>
      <point x="684.0" y="-317.0" type="line"/>
    </contour>
  </outline>
</glyph>
<glyph name="d" format="2">
  <advance width="902"/>
  <unicode hex="0064"/>
  <outline>
    <contour>
      <point x="43.0" y="442.0" type="qcurve" smooth="yes"/>
      <point x="49.0" y="474.0" type="line" smooth="yes"/>
      <point x="90.0" y="674.0"/>
      <point x="336.0" y="934.0"/>
      <point x="499.0" y="934.0" type="qcurve" smooth="yes"/>
      <point x="599.0" y="934.0"/>
      <point x="723.0" y="866.0"/>
      <point x="751.0" y="810.0" type="qcurve"/>
      <point x="858.0" y="1458.0" type="line"/>
      <point x="959.0" y="1458.0" type="line"/>
      <point x="688.0" y="0.0" type="line"/>
      <point x="591.0" y="0.0" type="line"/>
      <point x="615.0" y="133.0" type="line"/>
      <point x="614.0" y="133.0" type="line"/>
      <point x="564.0" y="70.0"/>
      <point x="405.0" y="-20.0"/>
      <point x="307.0" y="-20.0" type="qcurve" smooth="yes"/>
      <point x="139.0" y="-20.0"/>
      <point x="3.0" y="242.0"/>
    </contour>
    <contour>
      <point x="148.0" y="442.0" type="line" smooth="yes"/>
      <point x="119.0" y="282.0"/>
      <point x="214.0" y="78.0"/>
      <point x="354.0" y="78.0" type="qcurve" smooth="yes"/>
      <point x="448.0" y="78.0"/>
      <point x="601.0" y="185.0"/>
      <point x="642.0" y="254.0" type="qcurve"/>
      <point x="717.0" y="674.0" type="line"/>
      <point x="702.0" y="742.0"/>
      <point x="587.0" y="835.0"/>
      <point x="493.0" y="835.0" type="qcurve" smooth="yes"/>
      <point x="352.0" y="835.0"/>
      <point x="182.0" y="633.0"/>
      <point x="153.0" y="474.0" type="qcurve" smooth="yes"/>
    </contour>
  </outline>
</glyph>
<glyph name="i" format="2">
  <advance width="340"/>
  <unicode hex="0069"/>
  <outline>
    <contour>
      <point x="19.0" y="0.0" type="line"/>
      <point x="205.0" y="914.0" type="line"/>
      <point x="306.0" y="914.0" type="line"/>
      <point x="121.0" y="0.0" type="line"/>
    </contour>
    <contour>
      <point x="241.0" y="1262.0" type="qcurve" smooth="yes"/>
      <point x="249.0" y="1294.0"/>
      <point x="297.0" y="1338.0"/>
      <point x="332.0" y="1338.0" type="qcurve" smooth="yes"/>
      <point x="366.0" y="1338.0"/>
      <point x="391.0" y="1295.0"/>
      <point x="383.0" y="1262.0" type="qcurve" smooth="yes"/>
      <point x="374.0" y="1230.0"/>
      <point x="326.0" y="1185.0"/>
      <point x="291.0" y="1185.0" type="qcurve" smooth="yes"/>
      <point x="257.0" y="1185.0"/>
      <point x="232.0" y="1230.0"/>
    </contour>
  </outline>
</glyph>
<glyph name="braceleft" format="2">
  <advance width="597"/>
  <unicode hex="007B"/>
  <outline>
    <contour>
      <point x="397.0" y="-312.0" type="line"/>
      <point x="220.0" y="-312.0"/>
      <point x="67.0" y="-74.0"/>
      <point x="139.0" y="117.0" type="qcurve" smooth="yes"/>
      <point x="222.0" y="329.0" type="line" smooth="yes"/>
      <point x="267.71575305038584" y="454.01573716344257"/>
      <point x="161.0" y="534.0"/>
      <point x="60.0" y="534.0" type="qcurve"/>
      <point x="83.0" y="614.0" type="line"/>
      <point x="185.0" y="614.0"/>
      <point x="314.71575305038584" y="693.9842628365574"/>
      <point x="306.0" y="819.0" type="qcurve" smooth="yes"/>
      <point x="298.0" y="1031.0" type="line" smooth="yes"/>
      <point x="280.0" y="1222.0"/>
      <point x="532.0" y="1460.0"/>
      <point x="709.0" y="1460.0" type="qcurve"/>
      <point x="684.0" y="1380.0" type="line"/>
      <point x="545.0" y="1380.0"/>
      <point x="387.1831455393378" y="1192.067513737455"/>
      <point x="401.0" y="1026.0" type="qcurve" smooth="yes"/>
      <point x="410.0" y="814.0" type="line" smooth="yes"/>
      <point x="414.0" y="730.0"/>
      <point x="320.0" y="602.0"/>
      <point x="220.0" y="574.0" type="qcurve"/>
      <point x="311.0" y="546.0"/>
      <point x="358.0" y="418.0"/>
      <point x="325.0" y="334.0" type="qcurve" smooth="yes"/>
      <point x="242.0" y="122.0" type="line" smooth="yes"/>
      <point x="185.18314553933772" y="-44.06751373745524"/>
      <point x="284.0" y="-232.0"/>
      <point x="423.0" y="-232.0" type="qcurve"/>
    </contour>
  </outline>
</glyph>
<glyph name="caron" format="2">
  <advance width="1024"/>
  <unicode hex="02C7"/>
  <outline>
    <contour>
      <point x="458.0" y="969.0" type="line"/>
      <point x="230.0" y="1252.0" type="line"/>
      <point x="350.0" y="1252.0" type="line"/>
      <point x="517.0" y="1062.0" type="line"/>
      <point x="682.0" y="1252.0" type="line"/>
      <point x="795.0" y="1252.0" type="line"/>
      <point x="570.0" y="969.0" type="line"/>
    </contour>
  </outline>
</glyph>
<glyph name="ring" format="2">
  <advance width="1024"/>
  <unicode hex="02DA"/>
  <outline>
    <contour>
      <point x="302.0" y="1135.0" type="qcurve"/>
      <point x="302.0" y="1220.0"/>
      <point x="423.0" y="1341.0"/>
      <point x="512.0" y="1341.0" type="qcurve" smooth="yes"/>
      <point x="599.0" y="1341.0"/>
      <point x="722.0" y="1220.0"/>
      <point x="722.0" y="1135.0" type="qcurve" smooth="yes"/>
      <point x="722.0" y="1049.0"/>
      <point x="599.0" y="933.0"/>
      <point x="512.0" y="933.0" type="qcurve" smooth="yes"/>
      <point x="423.0" y="933.0"/>
      <point x="302.0" y="1049.0"/>
    </contour>
    <contour>
      <point x="394.0" y="1135.0" type="qcurve"/>
      <point x="394.0" y="1084.0"/>
      <point x="461.0" y="1018.0"/>
      <point x="512.0" y="1018.0" type="qcurve" smooth="yes"/>
      <point x="563.0" y="1018.0"/>
      <point x="630.0" y="1084.0"/>
      <point x="630.0" y="1135.0" type="qcurve" smooth="yes"/>
      <point x="630.0" y="1187.0"/>
      <point x="563.0" y="1255.0"/>
      <point x="512.0" y="1255.0" type="qcurve" smooth="yes"/>
      <point x="461.0" y="1255.0"/>
      <point x="394.0" y="1187.0"/>
    </contour>
  </outline>
</glyph>
<glyph name="caroncomb.alt" format="2">
  <advance width="1024"/>
  <outline>
    <contour>
      <point x="386.0" y="1092.0" type="line"/>
      <point x="508.0" y="1480.0" type="line"/>
      <point x="638.0" y="1442.0" type="line"/>
      <point x="474.0" y="1072.0" type="line"/>
    </contour>
  </outline>
</glyph>
<glyph name="seven.prop" format="2">
  <advance width="882"/>
  <outline>
    <contour>
      <point x="213.0" y="0.0" type="line"/>
      <point x="673.0" y="1300.0" type="line"/>
      <point x="-3.0" y="1300.0" type="line"/>
      <point x="-3.0" y="1456.0" type="line"/>
      <point x="871.0" y="1456.0" type="line"/>
      <point x="871.0" y="1352.0" type="line"/>
      <point x="409.0" y="0.0" type="line"/>
    </contour>
  </outline>
</glyph>
<glyph name="tildecomb.case" format="2">
  <advance width="1024"/>
  <outline>
    <contour>
      <point x="207.0" y="1660.0" type="line"/>
      <point x="236.0" y="1712.0"/>
      <point x="354.0" y="1788.0"/>
      <point x="414.0" y="1788.0" type="qcurve" smooth="yes"/>
      <point x="450.0" y="1788.0"/>
      <point x="513.0" y="1760.0"/>
      <point x="545.0" y="1740.0" type="qcurve" smooth="yes"/>
      <point x="576.0" y="1722.0"/>
      <point x="635.0" y="1690.0"/>
      <point x="668.0" y="1690.0" type="qcurve" smooth="yes"/>
      <point x="704.0" y="1690.0"/>
      <point x="770.0" y="1736.0"/>
      <point x="790.0" y="1766.0" type="qcurve"/>
      <point x="854.0" y="1699.0" type="line"/>
      <point x="820.0" y="1640.0"/>
      <point x="707.0" y="1586.0"/>
      <point x="656.0" y="1586.0" type="qcurve" smooth="yes"/>
      <point x="613.0" y="1586.0"/>
      <point x="541.0" y="1626.0"/>
      <point x="514.0" y="1641.0" type="qcurve" smooth="yes"/>
      <point x="484.0" y="1658.0"/>
      <point x="425.0" y="1680.0"/>
      <point x="400.0" y="1680.0" type="qcurve" smooth="yes"/>
      <point x="358.0" y="1680.0"/>
      <point x="278.0" y="1619.0"/>
      <point x="262.0" y="1597.0" type="qcurve"/>
    </contour>
  </outline>
</glyph>
